<svg width="87" height="65" viewBox="0 0 87 65" fill="none" xmlns="http://www.w3.org/2000/svg">
<path fill-rule="evenodd" clip-rule="evenodd" d="M45.4157 13.7981C45.4748 13.6216 45.7288 13.6349 45.7692 13.8167L48.7218 27.1305C48.735 27.1899 48.7767 27.2389 48.8332 27.2614L60.2543 31.807C60.4202 31.873 60.4039 32.1129 60.2306 32.1559L47.3726 35.3466C47.3137 35.3612 47.2658 35.404 47.2447 35.4608L42.8281 47.3251C42.7628 47.5005 42.5076 47.4773 42.4751 47.293L40.2071 34.4632C40.1962 34.4013 40.1543 34.3493 40.0962 34.3253L27.9856 29.3376C27.8183 29.2687 27.8409 29.0249 28.0179 28.9879L41.15 26.2444C41.2139 26.231 41.2659 26.1848 41.2866 26.1229L45.4157 13.7981Z" fill="#F08922"/>
</svg>
